<mxfile host="app.diagrams.net" modified="2021-06-30T11:27:33.402Z" agent="5.0 (Windows NT 10.0; Win64; x64) AppleWebKit/537.36 (KHTML, like Gecko) Chrome/92.0.4515.70 Safari/537.36 Edg/92.0.902.30" etag="EoGtPcTZ_1tIfDlAYxss" version="14.8.1" type="github">
  <diagram id="EmQxWOLAP1KOGbFc_6uW" name="第 1 页">
    <mxGraphModel dx="652" dy="372" grid="0" gridSize="10" guides="1" tooltips="1" connect="1" arrows="1" fold="1" page="1" pageScale="1" pageWidth="850" pageHeight="1100" math="0" shadow="0">
      <root>
        <mxCell id="0" />
        <mxCell id="1" parent="0" />
        <mxCell id="tdaSqgqJv0ToJrnUqmQ8-7" style="edgeStyle=orthogonalEdgeStyle;rounded=0;orthogonalLoop=1;jettySize=auto;html=1;exitX=1;exitY=0.5;exitDx=0;exitDy=0;entryX=0.01;entryY=0.088;entryDx=0;entryDy=0;entryPerimeter=0;fontSize=15;" edge="1" parent="1" source="tdaSqgqJv0ToJrnUqmQ8-1" target="tdaSqgqJv0ToJrnUqmQ8-5">
          <mxGeometry relative="1" as="geometry" />
        </mxCell>
        <mxCell id="tdaSqgqJv0ToJrnUqmQ8-1" value="正弦波" style="rounded=0;whiteSpace=wrap;html=1;fontSize=15;" vertex="1" parent="1">
          <mxGeometry x="277" y="195" width="105" height="31" as="geometry" />
        </mxCell>
        <mxCell id="tdaSqgqJv0ToJrnUqmQ8-8" style="edgeStyle=orthogonalEdgeStyle;rounded=0;orthogonalLoop=1;jettySize=auto;html=1;exitX=1;exitY=0.5;exitDx=0;exitDy=0;entryX=0.01;entryY=0.359;entryDx=0;entryDy=0;entryPerimeter=0;fontSize=15;" edge="1" parent="1" source="tdaSqgqJv0ToJrnUqmQ8-2" target="tdaSqgqJv0ToJrnUqmQ8-5">
          <mxGeometry relative="1" as="geometry">
            <Array as="points">
              <mxPoint x="426" y="260" />
            </Array>
          </mxGeometry>
        </mxCell>
        <mxCell id="tdaSqgqJv0ToJrnUqmQ8-2" value="方波" style="rounded=0;whiteSpace=wrap;html=1;fontSize=15;" vertex="1" parent="1">
          <mxGeometry x="277" y="244" width="105" height="31" as="geometry" />
        </mxCell>
        <mxCell id="tdaSqgqJv0ToJrnUqmQ8-11" style="edgeStyle=orthogonalEdgeStyle;rounded=0;orthogonalLoop=1;jettySize=auto;html=1;exitX=1;exitY=0.5;exitDx=0;exitDy=0;entryX=0.026;entryY=0.637;entryDx=0;entryDy=0;entryPerimeter=0;fontSize=15;" edge="1" parent="1" source="tdaSqgqJv0ToJrnUqmQ8-3" target="tdaSqgqJv0ToJrnUqmQ8-5">
          <mxGeometry relative="1" as="geometry" />
        </mxCell>
        <mxCell id="tdaSqgqJv0ToJrnUqmQ8-3" value="锯齿波" style="rounded=0;whiteSpace=wrap;html=1;fontSize=15;" vertex="1" parent="1">
          <mxGeometry x="277" y="293" width="105" height="31" as="geometry" />
        </mxCell>
        <mxCell id="tdaSqgqJv0ToJrnUqmQ8-10" style="edgeStyle=orthogonalEdgeStyle;rounded=0;orthogonalLoop=1;jettySize=auto;html=1;exitX=1;exitY=0.5;exitDx=0;exitDy=0;entryX=0;entryY=0.915;entryDx=0;entryDy=0;entryPerimeter=0;fontSize=15;" edge="1" parent="1" source="tdaSqgqJv0ToJrnUqmQ8-4" target="tdaSqgqJv0ToJrnUqmQ8-5">
          <mxGeometry relative="1" as="geometry" />
        </mxCell>
        <mxCell id="tdaSqgqJv0ToJrnUqmQ8-4" value="三角波" style="rounded=0;whiteSpace=wrap;html=1;fontSize=15;" vertex="1" parent="1">
          <mxGeometry x="277" y="342" width="105" height="31" as="geometry" />
        </mxCell>
        <mxCell id="tdaSqgqJv0ToJrnUqmQ8-14" style="edgeStyle=orthogonalEdgeStyle;rounded=0;orthogonalLoop=1;jettySize=auto;html=1;exitX=1;exitY=0.5;exitDx=0;exitDy=0;fontSize=15;" edge="1" parent="1" source="tdaSqgqJv0ToJrnUqmQ8-5">
          <mxGeometry relative="1" as="geometry">
            <mxPoint x="560.2222391764324" y="283.83333333333337" as="targetPoint" />
          </mxGeometry>
        </mxCell>
        <mxCell id="tdaSqgqJv0ToJrnUqmQ8-5" value="波形选择" style="rounded=0;whiteSpace=wrap;html=1;fontSize=15;" vertex="1" parent="1">
          <mxGeometry x="425" y="195" width="74" height="178" as="geometry" />
        </mxCell>
        <mxCell id="tdaSqgqJv0ToJrnUqmQ8-13" style="edgeStyle=orthogonalEdgeStyle;rounded=0;orthogonalLoop=1;jettySize=auto;html=1;entryX=0.5;entryY=0;entryDx=0;entryDy=0;fontSize=15;" edge="1" parent="1" source="tdaSqgqJv0ToJrnUqmQ8-12" target="tdaSqgqJv0ToJrnUqmQ8-5">
          <mxGeometry relative="1" as="geometry" />
        </mxCell>
        <mxCell id="tdaSqgqJv0ToJrnUqmQ8-12" value="sel" style="text;html=1;align=center;verticalAlign=middle;resizable=0;points=[];autosize=1;strokeColor=none;fontSize=15;" vertex="1" parent="1">
          <mxGeometry x="207" y="150" width="29" height="22" as="geometry" />
        </mxCell>
        <mxCell id="tdaSqgqJv0ToJrnUqmQ8-15" value="输出" style="text;html=1;align=center;verticalAlign=middle;resizable=0;points=[];autosize=1;strokeColor=none;fontSize=15;" vertex="1" parent="1">
          <mxGeometry x="554" y="274" width="40" height="22" as="geometry" />
        </mxCell>
        <mxCell id="tdaSqgqJv0ToJrnUqmQ8-21" value="&lt;font style=&quot;font-size: 15px&quot;&gt;clk&lt;br&gt;reset&lt;br&gt;&lt;/font&gt;" style="text;html=1;align=center;verticalAlign=middle;resizable=0;points=[];autosize=1;strokeColor=none;fontSize=23;" vertex="1" parent="1">
          <mxGeometry x="193" y="244" width="43" height="67" as="geometry" />
        </mxCell>
        <mxCell id="tdaSqgqJv0ToJrnUqmQ8-28" value="" style="shape=curlyBracket;whiteSpace=wrap;html=1;rounded=1;fontSize=23;size=0.5;" vertex="1" parent="1">
          <mxGeometry x="229" y="199" width="29" height="170" as="geometry" />
        </mxCell>
      </root>
    </mxGraphModel>
  </diagram>
</mxfile>
